<?xml version="1.0" encoding="UTF-8"?><svg id="_イヤー_1" xmlns="http://www.w3.org/2000/svg" viewBox="0 0 600 61"><defs><style>.cls-1{fill:#fff;}</style></defs><g><path class="cls-1" d="M114.73,43.84c-2.11-2.45-6.18-7.01-11.68-10.27v25.98h-6.71V20.09h-17.28v-5.87h45.18v5.87h-21.19v6.14c6.08,3.75,11.15,7.72,16.17,12.83l-4.49,4.78Z"/><path class="cls-1" d="M149.79,43.24c-2.06-1.79-2.96-2.77-3.65-3.81h-.11v20.11h-5.87v-17.39h-.1c-1.16,2.6-2.49,4.73-4.17,6.96l-4.97-2.83c6.18-8.26,7.66-14.13,8.45-18.42h-7.61v-5.71h8.4V12.81l5.71,.38c.42,0,1.32,.05,1.32,.54,0,.43-.68,1.04-1.16,1.57v6.85h6.4v5.71h-6.4v2.39c1.59,3.48,4.28,5.98,6.97,8.26l-3.22,4.72Zm7.61,2.23c-.63-4.02-2.27-8.21-3.59-10.6l5.07-2.5c1.11,2.39,2.91,6.41,3.7,11.3l-5.18,1.79Zm14.12,8.15c0,4.72-3.18,5.43-9.09,5.54l-2.86-6.03c1.75,.22,3.49,.22,3.86,.22,1.37,0,2.22-.05,2.22-1.9V27.69h-10.41v-5.7h10.41V12.58l5.07,.27c.95,.05,1.74,.11,1.74,.54s-.47,.98-.94,1.47v7.12h5.86v5.7h-5.86v25.93Z"/><path class="cls-1" d="M193.13,43.56c-1.85,.87-4.12,1.79-5.92,2.5-.26,.54-.52,.97-.94,.97s-.59-.59-.85-1.68l-1.27-4.62c1.85-.5,4.39-1.2,8.98-2.99v-10.66h-2.96c-.32,1.9-.69,4.02-1.37,6.03l-5.23-.87c1.37-4.84,2.11-10.65,2.43-15.06l4.97,1.14c.69,.17,1.32,.38,1.32,.71s-.42,.76-1.01,1.25c-.16,.49-.26,1.09-.37,1.52h2.22V13.4l5.07,.44c1.06,.11,1.8,.17,1.8,.65,0,.54-.63,1.36-1.26,2.07v5.27h4.49v5.27h-4.49v8.37c2.22-1.03,3.11-1.52,4.38-2.34l.1,5.33c-.84,.49-1.8,1.09-4.49,2.39v18.37h-5.61v-15.65Zm19.98-30.55l5.44,.27c.69,.05,1.37,.11,1.37,.49,0,.49-.37,.98-.79,1.52v2.99h9.35v5.16h-9.35v4.4h11.31v5.27h-5.6v5h5.18v5.27h-5.18v10.7c0,3.59-1.06,5.11-5.92,5.11h-2.64l-1.85-5.76c1.64,.22,2.91,.22,3.17,.22,.95,0,1.27-.27,1.27-1.25v-9.02h-14.27v-5.27h14.27v-5h-15.11v-5.27h9.35v-4.4h-7.4v-5.16h7.4v-5.27Zm-4.39,40.82c-1.16-2.28-2.75-4.78-4.39-6.57l4.12-3.21c2.17,2.55,3.81,5.11,4.7,6.85l-4.44,2.93Z"/><path class="cls-1" d="M280.03,57.48c-4.7-5.76-6.45-9.3-7.56-11.74h-.11v14.24h-6.08v-15.27h-.1c-4.81,7.72-8.67,11.15-11.15,13.32l-4.97-4.29c5.39-3.15,10.94-9.02,14.05-14.73h-8.4v-5.87h10.57v-6.74h-4.23c-.53,1.79-1.37,4.34-2.27,5.98l-4.7-2.12c-2.49,19.35-8.93,25.92-14.06,30.6l-5.49-3.42c6.6-4.24,9.2-9.73,11.15-14.51-1.37-1.09-2.91-2.12-4.55-2.99-.47,.7-1.32,2.01-2,2.72l-5.55-2.56c3.28-4.29,6.24-8.97,8.09-20.22h-5.44v-5.82h19.45v5.82h-8.46c-.11,1.41-.37,3.53-.63,4.89h7.87c-.05,.98-.05,1.58-.11,2.23l.11,.11c1.85-3.86,3.07-8.86,3.65-13.09l5.49,1.14c1,.22,1.48,.54,1.48,.92,0,.33-.53,.71-1.48,1.31-.27,1.19-.53,2.28-.84,3.42h2.53V12.64l6.19,.44c.74,.05,1.16,.27,1.16,.6,0,.27-.48,.76-1.27,1.47v5.65h9.99v5.6h-9.99v6.74h11.15v5.87h-9.77c2.37,5,6.5,10.16,11.31,13.69l-5.02,4.79Zm-33.77-27.07c-.48,1.52-1.06,3.21-1.53,4.41,1.11,.49,2.69,1.36,3.86,2.28,.58-2.07,.9-4.08,1.16-6.69h-3.49Z"/><path class="cls-1" d="M305.99,46.99c-.85-.76-2.01-1.96-2.75-3.31h-.11v15.87h-5.44v-12.56h-.11c-.63,1.52-1.85,3.59-2.7,4.73l-5.23-3.26c2.48-3.21,5.6-7.99,7.03-14.45h-6.08v-5.55h7.08V12.53l5.07,.38c.64,.05,1.43,.11,1.43,.49,0,.44-.58,.87-1.06,1.36v13.69h5.71v5.55h-5.71v.54c2.7,4.35,5.02,6.58,6.71,8.05l-3.86,4.4Zm-13.9-19.35c-.16-3.47-.79-7.61-2.01-11.14l5.5-.82c.74,3.1,1.43,7.02,1.85,11.31l-5.34,.65Zm18.65-10.21h-.1c-.79,3.97-2.11,8.75-2.69,10.49l-4.76-1.26c.74-2.39,2.01-6.68,2.38-10.81l5.18,1.08v-1.08h8.51v-3.37l5.44,.16c.47,0,1.16,.06,1.16,.38,0,.38-.26,.76-.69,1.2v1.63h9.72v4.51h-9.72v2.06h7.93v4.67h-7.93v2.07h10.41v4.67h-26v-4.67h9.67v-2.07h-7.77v-4.67h7.77v-2.06h-8.51v-2.94Zm22.62,37.88c0,3.86-2.33,4.41-8.61,4.46l-2.43-6.03c.84,.11,1.85,.21,3.81,.21,1.16,0,2.06,0,2.06-.92v-1.14h-11.42v7.61h-5.18v-24.18h21.77v20Zm-5.18-13.48v-2.12h-11.42v2.12h11.42Zm0,5.98v-2.12h-11.42v2.12h11.42Z"/><path class="cls-1" d="M388.29,55.52h-44.97v-6.26h19.08V22.64h-15.7v-6.09h38.36v6.09h-16.22v26.63h19.45v6.26Z"/><path class="cls-1" d="M411.46,42.15c-.85-.77-2.07-1.91-2.97-3.37h-.1v20.76h-5.39v-20.11h-.11c-1.38,3.92-3.44,7.61-4.71,9.4l-4.33-3.26c5.18-6.36,7.34-14.24,8.45-18.75h-6.5v-5.11h7.19V12.64l4.81,.38c.9,.06,1.53,.11,1.53,.49,0,.44-.42,.76-.95,1.31v6.9h5.76v5.11h-5.76v2.99c.74,1.63,2.01,4.34,6.34,8.15l-3.27,4.19Zm19.23-9.89h10.62v5.27h-9.62c3.01,7.99,9.14,12.45,11.89,14.35l-3.91,4.29c-5.12-4.51-7.08-6.9-8.88-9.84h-.11v13.04h-5.28v-13.81h-.11c-2.12,3.21-6.18,8.26-10.78,12.18l-4.33-3.92c3.48-2.82,9.61-8.21,13.1-16.3h-7.61v-5.27h9.72v-5.6h-4.76c-1,2.23-1.48,3.05-2.17,3.97l-4.54-2.39c3.22-4.51,4.49-8.97,5.13-12.83l4.44,1.09c.69,.16,1.16,.38,1.16,.7,0,.44-.53,.65-1.11,.93-.26,.87-.63,2.44-.95,3.42h2.81V12.75l5.23,.38c.48,0,1.48,.11,1.48,.6s-.69,1.04-1.43,1.63v6.2h9.93v5.1h-9.93v5.6Z"/><path class="cls-1" d="M473.46,54.59c-6.39,1.36-14.32,2.78-20.93,4.08-.79,.81-1.38,1.47-1.8,1.47s-.79-.49-.9-1.14l-.79-6.14c2.69-.33,5.81-.82,9.3-1.25v-11.2h-8.3v-5.87h21.45v5.87h-6.76v10.27c3.07-.38,6.87-.98,8.98-1.25l-.26,5.16Zm20.45-26.35h-16.38c2.43,15.81,8.72,23.31,10.94,23.31,1,0,1.74-2.44,2.59-5.05l4.28,4.13c-1.32,4.57-3.44,8.58-6.18,8.58s-5.6-1.9-8.88-6.63c-4.23-6.08-7.4-14.56-8.25-24.35h-22.93v-5.87h22.4c-.31-2.94-.47-7.55-.47-9.35l5.86,.76c.79,.11,1.27,.44,1.27,.93,0,.38-.64,.92-1.27,1.19,.05,2.34,.16,4.13,.26,6.47h16.75v5.87Zm-6.08-5.98c-1.95-2.23-5.55-4.51-7.13-5.49l2.95-4.13c2.28,1.04,5.76,3.48,7.61,4.94l-3.44,4.68Z"/><path class="cls-1" d="M543.71,32.69c-2.8-.97-4.6-2.01-6.08-2.88v4.62h-25.47v-4.46c-2.75,1.74-4.44,2.56-6.55,3.53l-4.07-4.78c8.72-3.43,15.01-8.97,19.29-16.58l6.87,1.2c1.11,.22,1.48,.38,1.48,.66,0,.33-.16,.6-.42,.92,.63,.87,1.9,2.28,2.17,2.56,4.07,4.24,9.72,7.5,16.96,10l-4.18,5.21Zm-3.49,27.18c-1.06-1.85-2.22-3.26-3.49-4.89-3.44,.38-19.76,2.4-28.8,3.37-.37,.55-.74,1.14-1,1.14-.37,0-.58-.7-.74-1.19l-1.43-6.41c2.8,0,4.12,0,7.45-.16,1.85-3.32,4.33-7.88,4.81-8.75h-11.73v-5.27h38.84v5.27h-11.42c3.07,2.66,7.71,7.01,12.31,12.83l-4.81,4.07Zm-3.91-30.81v-.11c-2.48-1.58-7.35-4.84-11.78-10.54-4.02,5-6.82,7.61-10.94,10.54v.11h22.72Zm-4.17,13.91h-7.93c-1.8,3.04-2.43,4.13-4.97,8.37,2.33-.11,8.35-.38,13.21-1.04-.95-.92-2.01-1.95-4.12-3.37l3.81-3.97Z"/><path class="cls-1" d="M553.08,43.62c5.87-3.69,10.73-8.91,14-15.05h-11.83v-5.87h6.34V13.02l5.6,.6c.69,.11,1.11,.33,1.11,.65,0,.27-.48,.82-1.22,1.3v7.12h5.76l2.37,2.44c-1.11,2.83-2.37,5.44-5.81,10.27,2.06,2.77,4.76,4.78,6.76,6.09l-3.12,4.51c-1.59-1.03-4.07-3.26-5.81-5.16v18.48h-5.55v-15.22c-2.17,1.96-3.28,2.77-4.65,3.7l-3.96-4.18Zm29.81-30.7l6.02,.54c.69,.05,1.11,.32,1.11,.65,0,.27-.32,.82-1.06,1.25v13.1h9.73v5.87h-9.73v18.15h11.04v5.87h-29.54v-5.87h12.42v-18.15h-7.98v-5.87h7.98V12.91Z"/></g><g><path class="cls-1" d="M22.47,9.42s-11.74-.22-13.05,11.31c0,0-.68,9.1,9.67,11.96,0,0,2.24,.49,9.23,.29v-9.3l10.84,.1s13.51,.1,16.13,13.85c0,0,1.94,9.68-7.92,15.69,0,0-2.97,2.47-9.91,2.47H.21v5.06H38.87s16.46,.14,21.25-16.13c0,0,4.99-17.63-14.51-24.99,0,0-2.4-.97-7.77-1.03-5.38-.06-14.58,0-14.58,0v9.27c-.34,.04-7.2,.76-8.55-5.88,0,0-1.17-6.39,7.39-7.62H60.7v-5H25.33l-2.86-.04Z"/><path class="cls-1" d="M25.74,.16h-3.29S9.78-.54,2.59,11.66c-7.19,12.2,1.49,27.89,15.36,30.21,0,0,1.69,.48,7.22,.42,5.19-.06,11.55-.07,12.33-.07h.08v-9.27c.33-.03,6.59-.47,8.26,4.78,1.72,5.39-3.37,8.88-7.03,8.75l-3.22,.08H.21v5H37.8s12.15,.31,13.61-10.77c0,0,1.33-8.3-8.07-12.04,0,0-2.49-.84-4.11-.84h-6.64l-.03,9.27-10.43,.03s-14.26,.21-16.59-14.37c0,0-1.78-11.72,11.08-16.69,0,0,2.01-.94,7.35-.97,1.35,0,2.13-.02,2.54-.03H60.7V.16H25.74Z"/></g></svg>