<?xml version="1.0" encoding="UTF-8"?><svg id="_イヤー_1" xmlns="http://www.w3.org/2000/svg" viewBox="0 0 136.04 184.01"><defs><style>.cls-1{fill:none;stroke:#fff;stroke-miterlimit:10;stroke-width:1.53px;}.cls-2{fill:#fff;}</style></defs><circle class="cls-1" cx="68.02" cy="68.02" r="67.25"/><path class="cls-2" d="M106.4,65.72l-55.34-31.95c-1.77-1.02-3.98,.26-3.98,2.3v63.9c0,2.04,2.21,3.32,3.98,2.3l55.34-31.95c1.77-1.02,1.77-3.57,0-4.59Z"/><g><path class="cls-2" d="M23.97,158.06l6.68,20.88,6.68-20.88h4.15v25.59h-3.22v-9.97l.3-9.98-6.7,19.95h-2.46l-6.66-19.88,.3,9.91v9.97h-3.22v-25.59h4.15Z"/><path class="cls-2" d="M63.37,173.11c0,3.49-.74,6.18-2.23,8.07s-3.6,2.83-6.35,2.83-4.72-.92-6.25-2.75-2.32-4.43-2.38-7.78v-4.82c0-3.42,.76-6.1,2.27-8.04s3.62-2.91,6.33-2.91,4.8,.93,6.3,2.79,2.28,4.51,2.31,7.95v4.66Zm-3.22-4.48c0-2.71-.44-4.72-1.33-6.04s-2.24-1.98-4.07-1.98-3.11,.67-4.02,2-1.37,3.3-1.38,5.91v4.59c0,2.61,.45,4.61,1.36,5.98s2.26,2.06,4.07,2.06,3.14-.63,4.01-1.9,1.32-3.21,1.35-5.82v-4.8Z"/><path class="cls-2" d="M74.95,178.72l5.85-20.65h3.53l-7.96,25.59h-2.81l-7.95-25.59h3.52l5.82,20.65Z"/><path class="cls-2" d="M91.24,183.66h-3.22v-25.59h3.22v25.59Z"/><path class="cls-2" d="M108.78,171.83h-9.05v9.07h10.55v2.76h-13.76v-25.59h13.59v2.76h-10.37v8.24h9.05v2.76Z"/></g></svg>