<?xml version="1.0" encoding="UTF-8"?><svg id="_イヤー_1" xmlns="http://www.w3.org/2000/svg" viewBox="0 0 500 350"><defs><style>.cls-1{fill:#fd0000;}</style></defs><path class="cls-1" d="M490.47,60.21c9.92,52.06,10.61,105.43,8.65,158.26-2.26,26.38-3.99,53-10.22,78.85-5.15,15.93-16.5,30.38-32.04,37.26-14.57,7.89-31.5,8.09-47.61,9.81-44.18,3.16-88.46,5.52-132.78,4.62-67.73,.44-135.67,.47-203.14-6.39-19.73-1.43-40.09-9.48-51.93-25.92-13.54-17.63-14.84-40.79-17.67-61.98C.65,212.68-1.71,170.39,1.62,128.27c1.16-25.55,2.62-51.4,9.85-76.09C18.05,30,38.61,13.53,61.1,9.5c15.67-2.69,31.61-3.23,47.41-5.02C177.74,.22,247.14,.69,316.5,.96c41.59,2.16,83.44,2.23,124.66,8.78,24.75,4.86,44.85,25.71,49.31,50.47Zm-160.09,114.81c-43.74-24.95-87.29-50.3-131.01-75.35,.07,50.24,.07,100.47,0,150.68,43.72-25.02,87.27-50.37,131.01-75.33Z"/></svg>